#!OML:ASF F:\VICON\USERDATA\INSTALL\rory3\rory3.ASF
:FULLY-SPECIFIED
:DEGREES
55
root 0.011999722992551476 18.402337545322524 27.950721978510103 4.211997066847912 3.3273582165814037 -4.838913529212826
lfemur -39.247418152252266 -2.2066099598553137 -17.401059758045694
ltibia 45.96176078331624
lfoot -1.312082479643375 -9.023405765893553
ltoes -15.946274189084424
rfemur 13.702282266577587 2.9931244354486153 34.07125547862913
rtibia 38.157775994668086
rfoot 24.296041786966576 0.14716295858127193
rtoes 9.498647596099408
lowerback 12.867209766730221 2.6347097073013757 6.510061240905745
upperback -2.1812962811964134 4.684209856645964 1.4017161735085153
thorax -8.960151987763865 1.9344180031277936 -3.942398354110533
lowerneck -19.16242781518615 -5.114782128544043 -2.0000101942736093
upperneck 14.994752569238571 -6.9934211992954545 2.8193180041694657
head 7.937234206821553 -3.1488098242871154 0.39655040938381503
lclavicle -1.820124624390558e-15 1.7174540963884973e-15
lhumerus -71.33252060616863 -7.008356549214763 96.6839610135993
lradius 105.23397918018053
lwrist 33.968634069598394
lhand -25.06237949864252 3.4880147972242
lfingers 7.12502
lthumb 1.4512090089199952 33.45947285474048
rclavicle -1.820124624390558e-15 1.7174540963884973e-15
rhumerus -39.81460076981068 13.58041978810961 -93.94754149852082
rradius 115.82494986559459
rwrist -11.061636197444637
rhand -15.222616039421684 39.251562535253385
rfingers 7.12502
rthumb 10.949613022438246 10.877811136209019
56
root 0.021839708402629388 18.481994853379526 28.406725359517672 4.1918904666328975 3.4697513298503773 -4.877601122345185
lfemur -37.40921626519029 -2.237230487668233 -18.087630342842584
ltibia 38.05988671445418
lfoot -0.01994393387733126 -10.212658832639784
ltoes -16.198175039430666
rfemur 14.215849000482432 4.227422074712159 34.18811813320424
rtibia 39.56952649911577
rfoot 26.90344273115022 -0.18428524327835127
rtoes 13.675826408450417
lowerback 12.414850669516134 2.7815931697600176 6.5460590281353435
upperback -2.3625292073216775 4.845289452536036 1.2238075715456316
thorax -8.805357099436444 2.009989802181544 -4.217510068184578
lowerneck -19.070637714307573 -5.212927136018424 -2.0870802576008454
upperneck 15.352924558896019 -7.1422529828841625 2.9223260419785015
head 8.046991366042825 -3.208849823112165 0.43077812482947164
lclavicle -2.087984743163367e-15 1.5231746020710553e-15
lhumerus -72.66482686436527 -5.7522065835162195 95.7520890071314
lradius 106.56577945905221
lwrist 33.495727919790546
lhand -25.165448150503796 2.9957039488931683
lfingers 7.12502
lthumb 1.3516587569942886 32.967468726015206
rclavicle -2.087984743163367e-15 1.5231746020710553e-15
rhumerus -40.37395691204314 13.915179465513983 -94.27558711001996
rradius 115.34574340789399
rwrist -11.07306133708099
rhand -15.219640492352658 39.131926467945775
rfingers 7.12502
rthumb 10.95264031795121 10.871479661712623
57
root 0.02375097207429297 18.50393045002211 28.94644602482972 4.050856396019419 3.526476342783141 -4.9668996924362165
lfemur -35.43977136653293 -1.869536836955255 -18.679045211377524
ltibia 32.14940608009431
lfoot 1.2408647626429354 -10.890447316368196
ltoes -16.419113726213627
rfemur 13.859675951300655 5.209075439392883 34.38312363320385
rtibia 43.013216127673076
rfoot 27.246178141278605 -1.2674142218028353
rtoes 16.01627188365411
lowerback 12.26057473105787 2.89320115150263 6.531162857043421
upperback -2.3997373214343223 4.975096233341153 1.1347590919469634
thorax -8.719915813078874 2.0738668244761396 -4.336825996873128
lowerneck -19.108748328496272 -5.257671827559644 -2.1710237450005283
upperneck 15.517323296245586 -7.2031501231171795 3.0230420949026127
head 8.118634236868145 -3.2298768034437684 0.4735080645162552
lclavicle -2.1979520416837713e-15 1.4434129774106686e-15
lhumerus -73.29038379977973 -4.789007392072374 95.1356644865875
lradius 107.97759554235485
lwrist 32.93097265201993
lhand -24.99315217775239 2.337911411586258
lfingers 7.12502
lthumb 1.518049316537917 32.304465473982496
rclavicle -2.1979520416837713e-15 1.4434129774106686e-15
rhumerus -40.79019084825051 14.27111622953699 -94.63774842373329
rradius 114.66920584294756
rwrist -10.986497543903068
rhand -15.491451100136114 39.06629410646811
rfingers 7.12502
rthumb 10.690693216768206 10.743669347368188
58
root 0.022121798235987145 18.48533785223212 30.035671794904182 3.768614870654046 3.6430143284701075 -5.022304456890193
lfemur -33.27213258974871 -1.2833637798826747 -19.152373208851653
ltibia 28.4228899070965
lfoot 2.3284654804878557 -11.147824794916854
ltoes -16.342426362743396
rfemur 13.23761352834239 5.7695323373812375 34.56315590465241
rtibia 48.449436254725114
rfoot 26.43178454775604 -2.7183257001197574
rtoes 17.006059646899082
lowerback 12.388328259179367 2.978297324334494 6.5038092598554575
upperback -2.302604239693885 5.0882886787497 1.121153669014265
thorax -8.694892484760999 2.1300146738727572 -4.294147908551705
lowerneck -19.168945393029702 -5.236765204547348 -2.245162586604538
upperneck 15.526118254215591 -7.163649858582458 3.131181655840971
head 8.147331976006926 -3.206192981924699 0.5301218200920746
lclavicle -1.8486291446671374e-15 1.6967726449723341e-15
lhumerus -73.19339131041228 -4.047480414938345 94.91816824603957
lradius 109.38759685213516
lwrist 32.3705560545006
lhand -24.687991933289833 1.7512175063860675
lfingers 7.12502
lthumb 1.8127663526880478 31.712154641780387
rclavicle -1.8486291446671374e-15 1.6967726449723341e-15
rhumerus -40.93273504256388 14.665248455416755 -94.95927332858888
rradius 113.9264291316321
rwrist -10.797411987004532
rhand -15.845307999638292 39.027107150624026
rfingers 7.12502
rthumb 10.349575510624227 10.534372389219318
59
root 0.00957637703712022 18.422366079920756 31.21834514748017 3.320980812395896 3.836347432067899 -5.040091477835213
lfemur -31.348651044425957 -0.7344177224782047 -19.665448619613507
ltibia 26.239247924800527
lfoot 2.722996002823888 -11.312503969288272
ltoes -15.738127386438311
rfemur 12.04744196126499 5.757607457821923 34.469453426881785
rtibia 54.74947301539527
rfoot 24.96472775879709 -4.478657703932216
rtoes 16.825393425928596
lowerback 12.696371480158279 2.9924520187643227 6.337106258901354
upperback -2.1143383663856783 5.0992221458883344 1.130287817230975
thorax -8.725438857315114 2.143437335035585 -4.143835805552145
lowerneck -19.204855285692993 -5.187776734899201 -2.3265905503614674
upperneck 15.408282978102191 -7.0820337541105705 3.2359804821159863
head 8.132054533017413 -3.164563024165218 0.5952090104033101
lclavicle -1.6073683767168919e-15 1.871735413128904e-15
lhumerus -72.7076590799135 -3.695332430845447 95.06234781855927
lradius 110.63810129029581
lwrist 31.79931957303997
lhand -24.46198892841769 1.3569038365842552
lfingers 7.12502
lthumb 2.0310479826718857 31.31611433223725
rclavicle -1.6073683767168919e-15 1.871735413128904e-15
rhumerus -41.09276314551184 14.883343606351211 -95.30887897728847
rradius 112.99221817139033
rwrist -10.555073409823686
rhand -16.189205883886533 38.97730287342796
rfingers 7.12502
rthumb 10.017926715396728 10.286909162054814
